<svg width="16" height="16" viewBox="0 0 16 16" fill="none" xmlns="http://www.w3.org/2000/svg">
<g clip-path="url(#clip0_1790_215)">
<rect width="16" height="16" fill="black"/>
<path d="M11.288 13L9.048 9.85C8.796 9.878 8.53467 9.892 8.264 9.892H5.632V13H4.596V3.2H8.264C9.51467 3.2 10.4947 3.49867 11.204 4.096C11.9133 4.69333 12.268 5.51467 12.268 6.56C12.268 7.32533 12.072 7.974 11.68 8.506C11.2973 9.02867 10.7467 9.40667 10.028 9.64L12.422 13H11.288ZM8.236 9.01C9.20667 9.01 9.94867 8.79533 10.462 8.366C10.9753 7.93667 11.232 7.33467 11.232 6.56C11.232 5.76667 10.9753 5.16 10.462 4.74C9.94867 4.31067 9.20667 4.096 8.236 4.096H5.632V9.01H8.236Z" fill="white"/>
</g>
<defs>
<clipPath id="clip0_1790_215">
<rect width="16" height="16" fill="white"/>
</clipPath>
</defs>
</svg>
